<?xml version="1.0" standalone="no"?>
<!DOCTYPE svg PUBLIC "-//W3C//DTD SVG 20010904//EN"
 "http://www.w3.org/TR/2001/REC-SVG-20010904/DTD/svg10.dtd">
<svg version="1.0" xmlns="http://www.w3.org/2000/svg"
 width="600.000000pt" height="195.000000pt" viewBox="0 0 600.000000 195.000000"
 preserveAspectRatio="xMidYMid meet">
<metadata>
Created by potrace 1.10, written by Peter Selinger 2001-2011
</metadata>
<g transform="translate(0.000000,195.000000) scale(0.100000,-0.100000)"
fill="#ffffff" stroke="none">
<path d="M340 1617 c-67 -33 -107 -92 -115 -169 -3 -35 -5 -300 -3 -589 l3
-526 35 -45 c19 -26 54 -56 78 -67 42 -21 45 -21 1267 -21 l1224 0 18 24 c10
14 38 54 63 90 25 37 66 95 93 131 26 35 47 67 47 70 0 2 26 41 58 84 31 44
77 107 101 141 24 34 49 64 56 66 6 3 65 -49 131 -115 69 -70 136 -127 157
-136 20 -8 37 -20 37 -25 0 -10 80 -175 111 -230 8 -14 27 -42 42 -63 l29 -37
917 0 918 0 44 23 c24 13 58 43 74 66 l30 43 0 586 c0 576 0 588 -21 619 -23
36 -53 62 -101 87 -29 14 -121 16 -986 16 -895 0 -956 -1 -975 -17 -17 -16
-209 -265 -252 -327 -19 -27 -131 -178 -141 -190 -4 -5 -24 16 -43 45 -20 30
-52 77 -71 104 -20 28 -48 68 -62 90 -14 22 -45 65 -68 95 -23 30 -44 62 -48
70 -3 8 -26 41 -51 73 l-46 57 -1253 0 -1252 0 -45 -23z m2385 -45 c6 -4 18
-18 27 -32 9 -14 33 -47 53 -75 19 -27 51 -72 70 -100 20 -27 64 -90 100 -140
127 -177 185 -265 185 -278 0 -8 -11 -24 -25 -37 -14 -13 -25 -28 -25 -33 0
-5 -12 -23 -26 -41 -25 -30 -255 -340 -312 -419 -15 -22 -39 -54 -54 -72 -16
-18 -28 -36 -28 -40 0 -4 -10 -15 -22 -26 -22 -18 -63 -18 -1153 -19 l-1130 0
-37 25 c-21 14 -43 35 -50 48 -10 17 -14 144 -16 542 -2 286 0 543 3 571 5 39
14 59 38 84 17 18 41 36 52 41 25 10 2336 11 2350 1z m2890 -8 c18 -8 43 -26
56 -40 l24 -26 3 -553 c1 -305 -1 -569 -6 -587 -5 -21 -23 -45 -51 -65 l-43
-33 -826 0 -826 0 -56 62 c-129 146 -256 269 -298 289 -34 17 -48 32 -62 64
-35 81 -71 153 -93 186 -12 19 -30 50 -41 69 l-18 36 31 44 c17 25 47 65 66
90 19 25 46 61 60 80 13 19 38 53 54 75 17 22 38 51 48 65 10 14 57 78 106
143 l88 117 875 0 c772 0 880 -2 909 -16z"/>
<path d="M485 1358 c-3 -7 -4 -227 -3 -488 l3 -475 205 -3 c300 -5 378 13 456
101 61 69 83 176 54 262 -16 45 -71 109 -112 131 -35 18 -35 28 0 62 55 54 72
94 72 168 0 120 -64 206 -179 238 -74 21 -489 24 -496 4z m481 -125 c108 -52
92 -227 -24 -261 -63 -19 -298 -28 -317 -12 -12 10 -15 38 -15 145 0 72 3 135
7 138 3 4 75 7 159 7 125 0 160 -3 190 -17z m31 -418 c62 -36 80 -82 75 -182
-1 -17 -14 -45 -28 -63 -44 -51 -82 -62 -253 -68 -141 -4 -155 -3 -168 14 -14
19 -19 275 -7 309 6 15 24 17 178 13 146 -3 176 -6 203 -23z"/>
<path d="M1396 1354 c-8 -20 -8 -928 0 -948 5 -12 20 -16 60 -16 30 0 55 1 56
3 1 1 4 99 7 217 l6 215 98 3 c78 2 106 -1 140 -16 47 -21 109 -89 171 -187
21 -33 51 -79 67 -103 16 -23 29 -45 29 -48 0 -4 14 -24 31 -45 30 -38 32 -39
94 -39 35 0 66 4 69 8 15 25 -184 327 -261 396 -42 37 -42 53 0 61 137 30 227
168 197 302 -25 105 -76 165 -168 193 -57 18 -94 20 -327 20 -230 0 -264 -2
-269 -16z m564 -121 c48 -30 70 -71 70 -132 0 -42 -5 -56 -31 -86 -54 -61 -74
-67 -259 -73 -92 -2 -179 -2 -194 2 l-26 6 0 149 c0 81 3 151 8 155 4 4 95 6
202 4 180 -3 198 -5 230 -25z"/>
<path d="M2395 1358 c-3 -7 -4 -227 -3 -488 l3 -475 50 -3 c38 -3 52 1 62 14
10 14 13 117 13 468 0 248 -3 461 -6 474 -6 19 -13 22 -60 22 -35 0 -56 -5
-59 -12z"/>
<path d="M4006 1354 c-8 -20 -8 -927 0 -948 5 -14 47 -16 360 -16 l354 0 6 24
c3 13 4 37 2 52 l-3 29 -295 5 -295 5 0 165 0 165 262 3 263 2 6 24 c3 13 4
37 2 52 l-3 29 -265 5 -265 5 -3 148 -3 147 273 0 c150 0 279 4 286 9 9 5 12
25 10 57 l-3 49 -341 3 c-305 2 -342 1 -348 -14z"/>
<path d="M4907 1364 c-9 -9 -10 -936 -1 -958 5 -14 41 -16 300 -16 l294 0 6
24 c3 13 4 37 2 52 l-3 29 -235 5 -235 5 -5 430 -5 430 -55 3 c-31 2 -59 0
-63 -4z"/>
</g>
</svg>
