<?xml version="1.0" encoding="UTF-8" standalone="no"?> <svg fill="white" xmlns="http://www.w3.org/2000/svg" viewBox="0 0 64 64"><g id="Layer_33" data-name="Layer 33"><path d="M53.36,27.28c-7.52-18.45-35.26-18.45-42.79,0-8.33-.92-10.53,10.81-2.5,13l2.52,7.42a4.34,4.34,0,0,0,4.11,2.94H49.23a4.34,4.34,0,0,0,4.11-2.94l2.51-7.4C64,38.15,61.77,26.27,53.36,27.28Zm-13.83-3,3,4.16A1,1,0,0,1,41,29.58l-3-4.16A1,1,0,0,1,39.53,24.24ZM31,24.69a1,1,0,0,1,2,0v4.44a1,1,0,0,1-2,0ZM21.44,28.4l3-4.16a1,1,0,0,1,1.62,1.18l-3,4.16A1,1,0,0,1,21.44,28.4Zm30,18.65a2.35,2.35,0,0,1-2.22,1.59H14.7a2.36,2.36,0,0,1-2.22-1.59l-2.24-6.61a6.58,6.58,0,0,0,4-1.86,6.29,6.29,0,0,0,8.88.08,6.31,6.31,0,0,0,8.81,0,6.3,6.3,0,0,0,8.8,0,6.29,6.29,0,0,0,8.92-.13,6.57,6.57,0,0,0,4,1.9Z"/></g></svg>