<?xml version="1.0" encoding="UTF-8" standalone="no"?><!DOCTYPE svg PUBLIC "-//W3C//DTD SVG 1.1//EN" "http://www.w3.org/Graphics/SVG/1.1/DTD/svg11.dtd"><svg fill="white" width="100%" height="100%" viewBox="0 0 24 24" version="1.1" xmlns="http://www.w3.org/2000/svg" xmlns:xlink="http://www.w3.org/1999/xlink" xml:space="preserve" xmlns:serif="http://www.serif.com/" style="fill-rule:evenodd;clip-rule:evenodd;stroke-linejoin:round;stroke-miterlimit:2;"><g id="Icon"><path d="M8.5,22.75c-0.414,-0 -0.75,-0.336 -0.75,-0.75c0,-0.414 0.336,-0.75 0.75,-0.75l9.313,-0c0.414,-0 0.75,0.336 0.75,0.75c-0,0.414 -0.336,0.75 -0.75,0.75l-9.313,-0Z"/><path d="M17.813,12.282c-0.414,-0 -0.75,-0.336 -0.75,-0.75c-0,-0.414 0.336,-0.75 0.75,-0.75l1.31,-0c0.962,-0 1.885,0.382 2.565,1.062c0.68,0.68 1.062,1.603 1.062,2.564l-0,0.005c0,0.962 -0.382,1.884 -1.062,2.564c-0.68,0.68 -1.603,1.062 -2.565,1.062l-1.31,0c-0.414,0 -0.75,-0.336 -0.75,-0.75c-0,-0.414 0.336,-0.75 0.75,-0.75l1.31,0c0.564,0 1.105,-0.224 1.504,-0.623c0.399,-0.398 0.623,-0.939 0.623,-1.503l-0,-0.005c0,-0.564 -0.224,-1.104 -0.623,-1.503c-0.399,-0.399 -0.94,-0.623 -1.504,-0.623l-1.31,-0Z"/><path d="M5.848,3.427c-0.185,-0.37 -0.034,-0.821 0.336,-1.006c0.37,-0.185 0.821,-0.035 1.006,0.335c0.482,0.964 0.378,2.117 -0.269,2.978l-0.017,0.024c-0.305,0.407 -0.354,0.951 -0.127,1.407c0.185,0.37 0.035,0.821 -0.335,1.006c-0.371,0.185 -0.821,0.035 -1.007,-0.336c-0.481,-0.963 -0.377,-2.116 0.269,-2.977l0.017,-0.024c0.306,-0.407 0.355,-0.952 0.127,-1.407Z"/><path d="M14.223,3.427c-0.185,-0.37 -0.035,-0.821 0.335,-1.006c0.371,-0.185 0.821,-0.035 1.007,0.335c0.481,0.964 0.377,2.117 -0.269,2.978l-0.017,0.024c-0.306,0.407 -0.355,0.951 -0.127,1.407c0.185,0.37 0.034,0.821 -0.336,1.006c-0.37,0.185 -0.821,0.035 -1.006,-0.336c-0.482,-0.963 -0.378,-2.116 0.269,-2.977l0.017,-0.024c0.305,-0.407 0.354,-0.952 0.127,-1.407Z"/><path d="M10.036,3.427c-0.185,-0.37 -0.035,-0.821 0.335,-1.006c0.37,-0.185 0.821,-0.035 1.006,0.335c0.482,0.964 0.378,2.117 -0.268,2.978l-0.018,0.024c-0.305,0.407 -0.354,0.951 -0.127,1.407c0.185,0.37 0.035,0.821 -0.335,1.006c-0.37,0.185 -0.821,0.035 -1.006,-0.336c-0.482,-0.963 -0.378,-2.116 0.268,-2.977l0.018,-0.024c0.305,-0.407 0.354,-0.952 0.127,-1.407Z"/><path d="M2,17.25l1,0c0.995,-0 1.948,0.395 2.652,1.098c0.703,0.704 1.098,1.657 1.098,2.652l0,1c0,0.414 -0.336,0.75 -0.75,0.75l-1,-0c-0.995,0 -1.948,-0.395 -2.652,-1.098c-0.703,-0.704 -1.098,-1.657 -1.098,-2.652l0,-1c-0,-0.414 0.336,-0.75 0.75,-0.75Z"/><path d="M2.427,16.25c-0.013,-0.176 -0.02,-0.353 -0.02,-0.531l0,-5.234c0,-0.414 0.336,-0.75 0.75,-0.75l14.656,0c0.414,0 0.75,0.336 0.75,0.75l-0,5.234c-0,1.865 -0.741,3.653 -2.06,4.972c-1.318,1.318 -3.106,2.059 -4.971,2.059l-1.12,-0c0.258,-0.181 0.501,-0.385 0.727,-0.611c1.032,-1.031 1.611,-2.43 1.611,-3.889l0,-1.25c0,-0.966 -0.784,-1.75 -1.75,-1.75l-1.25,0c-1.459,-0 -2.858,0.579 -3.889,1.611c-0.067,0.067 -0.133,0.136 -0.196,0.207c-0.781,-0.529 -1.708,-0.818 -2.665,-0.818l-0.573,0Z"/><path d="M6.429,17.713c0.045,-0.049 0.092,-0.098 0.139,-0.145c0.844,-0.844 1.989,-1.318 3.182,-1.318l1.25,0c0.414,-0 0.75,0.336 0.75,0.75l0,1.25c0,1.193 -0.474,2.338 -1.318,3.182c-0.764,0.764 -1.774,1.225 -2.844,1.305c0.104,-0.224 0.162,-0.474 0.162,-0.737l0,-1c0,-1.226 -0.474,-2.403 -1.321,-3.287Z"/></g></svg>