<?xml version="1.0" encoding="UTF-8" standalone="no"?> <svg fill="white" id="solid" xmlns="http://www.w3.org/2000/svg" viewBox="0 0 512 512"><path d="M404.37,299.94c-4.25-37.59-22.18-67.96-50.47-85.52-20.41-12.68-44.41-17.55-69.54-14.45-19.46,2.39-39.37,9.54-57.91,20.9a178.341,178.341,0,0,0-37.54,30.92,192.829,192.829,0,0,0-12.42,14.87q-5.415,7.17-10.22,14.9a195.973,195.973,0,0,0-15.13,29.66v.01h.01c-11.02,27.11-15.35,55.64-12.28,82.74,4.26,37.59,22.18,67.96,50.48,85.53a103.34,103.34,0,0,0,55.02,15.35,129.749,129.749,0,0,0,44.02-8.06c35.24-12.75,66.7-39.18,88.58-74.44S408.59,337.17,404.37,299.94Zm-65.36,21.89a94.085,94.085,0,0,1-58.89,42.27l-14.74,3.45a87.21,87.21,0,0,0-65,64.74l-9.24,38.85c-1.66-1.1-3.26-2.25-4.83-3.44l-1.33-41c-.03-.8-.04-1.6-.04-2.39a74.106,74.106,0,0,1,57.22-72.17l19.4-4.54a96.289,96.289,0,0,0,72.88-76.98l9.33-52.78q3.015,1.575,5.91,3.37c.32.2.63.41.95.61l2.48,44.84c.09,1.73.14,3.5.14,5.24A94.557,94.557,0,0,1,339.01,321.83ZM159.47,277.34a206.34,206.34,0,0,1,13.91-19.71,69.739,69.739,0,0,1,3.36-46.17L181.27,201a66.639,66.639,0,0,0-10.17-69.39L152.68,109.7c.79-.27,1.59-.53,2.39-.76l25,17.3a54.816,54.816,0,0,1,19.12,66.82l-5.96,13.78a73.154,73.154,0,0,0-6.04,29.18q0,2.91.23,5.8a185.1,185.1,0,0,1,34.85-27.78c19.25-11.79,39.73-19.21,60.05-21.85-1.31-4.49-2.84-8.95-4.57-13.34-11.6-29.26-31.53-53.23-56.14-67.49-24.91-14.43-51.63-17.23-75.23-7.88C98,122.65,78.23,187.66,102.29,248.38c9.25,23.35,24.04,43.53,42.22,57.94A205.637,205.637,0,0,1,159.47,277.34Z"/><path d="M392.33,63.63c-6.76-18.32-19.52-31.35-35.94-36.7-33.53-10.92-71.91,14.3-85.56,56.22s2.52,84.89,36.06,95.81A51.655,51.655,0,0,0,323,181.51c28.91,0,57.96-23.46,69.45-58.76C399.01,102.61,398.97,81.62,392.33,63.63ZM359.44,82.11a45,45,0,0,1-22.54,26.36l-6.74,3.43a45.651,45.651,0,0,0-24.93,40.96l.1,13.93-4.31-15.37a35.024,35.024,0,0,1,17.84-40.66l8.88-4.51A50.109,50.109,0,0,0,355.02,58.3l-1.57-23.89h.01l6.23,20.46a45.156,45.156,0,0,1-.25,27.24Z"/></svg>
