<?xml version="1.0" encoding="UTF-8"  standalone="no"?> <svg id="Layer_1" fill="white" data-name="Layer 1" xmlns="http://www.w3.org/2000/svg" viewBox="0 0 48 48"><path d="M13,10a1,1,0,0,1-1-1V8.414a4.382,4.382,0,0,1,1.293-3.121A2.432,2.432,0,0,0,14,3.586V3a1,1,0,0,1,2,0v.586a4.382,4.382,0,0,1-1.293,3.121A2.432,2.432,0,0,0,14,8.414V9A1,1,0,0,1,13,10Z"/><path d="M21,10a1,1,0,0,1-1-1V8.414a4.382,4.382,0,0,1,1.293-3.121A2.432,2.432,0,0,0,22,3.586V3a1,1,0,0,1,2,0v.586a4.382,4.382,0,0,1-1.293,3.121A2.432,2.432,0,0,0,22,8.414V9A1,1,0,0,1,21,10Z"/><path d="M29,10a1,1,0,0,1-1-1V8.414a4.382,4.382,0,0,1,1.293-3.121A2.432,2.432,0,0,0,30,3.586V3a1,1,0,0,1,2,0v.586a4.382,4.382,0,0,1-1.293,3.121A2.432,2.432,0,0,0,30,8.414V9A1,1,0,0,1,29,10Z"/><path d="M41.5,17H38v4h3v6.5A3.517,3.517,0,0,1,37.5,31h-.09a13.962,13.962,0,0,1-1.937,4H37.5A7.5,7.5,0,0,0,45,27.5v-7A3.5,3.5,0,0,0,41.5,17Z"/><path d="M24,39H17A12.013,12.013,0,0,1,5,27V17a5.006,5.006,0,0,1,5-5H31a5.006,5.006,0,0,1,5,5V27A12.013,12.013,0,0,1,24,39Z"/><path d="M39,41H4a1,1,0,0,0-1,1H3a4,4,0,0,0,4,4H36a4,4,0,0,0,4-4h0A1,1,0,0,0,39,41Z"/></svg>