<?xml version="1.0" encoding="UTF-8"?><svg id="Glyph" fill="white" xmlns="http://www.w3.org/2000/svg" viewBox="0 0 64 64"><path d="M30.293,15.707l.541,.541c1.089,1.089,1.259,2.81,.402,4.095l-.07,.106c-.305,.46-.178,1.081,.283,1.385,.169,.112,.36,.166,.55,.166,.324,0,.644-.158,.835-.449l.068-.103c1.382-2.072,1.106-4.854-.654-6.614l-.541-.541c-1.265-1.265-1.265-3.321,0-4.586,2.044-2.044,2.044-5.37,0-7.414-.391-.391-1.023-.391-1.414,0s-.391,1.023,0,1.414c1.265,1.265,1.265,3.321,0,4.586-2.044,2.044-2.044,5.37,0,7.414Z"/><path d="M22.293,19.707l.541,.541c1.089,1.089,1.259,2.81,.402,4.095l-.07,.106c-.305,.46-.178,1.081,.283,1.385,.169,.112,.36,.166,.55,.166,.324,0,.644-.158,.835-.449l.068-.103c1.382-2.072,1.106-4.854-.654-6.614l-.541-.541c-1.265-1.265-1.265-3.321,0-4.586,2.044-2.044,2.044-5.37,0-7.414-.391-.391-1.023-.391-1.414,0s-.391,1.023,0,1.414c1.265,1.265,1.265,3.321,0,4.586-2.044,2.044-2.044,5.37,0,7.414Z"/><path d="M39.293,19.707l.541,.541c1.089,1.089,1.259,2.81,.402,4.095l-.07,.106c-.305,.46-.178,1.081,.283,1.385,.169,.112,.36,.166,.55,.166,.324,0,.644-.158,.835-.449l.068-.103c1.382-2.072,1.106-4.854-.654-6.614l-.541-.541c-1.265-1.265-1.265-3.321,0-4.586,2.044-2.044,2.044-5.37,0-7.414-.391-.391-1.023-.391-1.414,0s-.391,1.023,0,1.414c1.265,1.265,1.265,3.321,0,4.586-2.044,2.044-2.044,5.37,0,7.414Z"/><path d="M30.738,39.306l.518-.345c.64-.427,1.326-.743,2.031-.98-4.276,.026-8.554-.068-12.822-.3,.802,.257,1.579,.629,2.3,1.134l.582,.407c2.23,1.561,5.132,1.594,7.393,.084Z"/><path d="M9.688,34.811c14.82,1.58,29.802,1.581,44.575,.005,.943-.103,1.885-.006,2.774,.262-1.44-2.611-4.332-4.21-7.494-3.922-11.639,1.121-23.445,1.121-35.09,0-.256-.027-.5-.035-.744-.035-2.862,0-5.409,1.568-6.735,3.944,.633-.189,1.301-.294,1.995-.294,.24,0,.479,.02,.719,.041Z"/><path d="M39.635,40.625c-2.209-1.473-5.061-1.473-7.27,0l-.518,.345c-.657,.438-1.359,.76-2.079,.999,4.082,.05,8.166-.035,12.24-.258-.827-.238-1.631-.59-2.374-1.086Z"/><path d="M21.618,40.453c-2.591-1.814-6.088-1.517-8.342,.693,.455-.02,.913-.02,1.373,.024,3.117,.298,6.246,.508,9.38,.645-.633-.247-1.252-.55-1.83-.954l-.582-.407Z"/><path d="M48.693,38.439l1.403-1.227c-3.865,.331-7.74,.559-11.62,.677,.791,.24,1.555,.596,2.269,1.072,2.457,1.639,5.727,1.425,7.949-.521Z"/><path d="M58.362,38.053c-1.053-.946-2.467-1.403-3.886-1.249-.326,.035-.654,.058-.981,.091l-3.486,3.05c-.651,.569-1.377,1.008-2.137,1.348,.492-.043,.986-.076,1.478-.123,2.733-.268,5.466,.643,7.492,2.483,.579,.526,1.078,1.124,1.508,1.764,.13-.117,.262-.233,.376-.363,.824-.921,1.273-2.098,1.273-3.323,0-1.423-.582-2.729-1.638-3.678Z"/><path d="M49.542,43.16c-11.641,1.115-23.443,1.115-35.084,0-.247-.023-.494-.035-.741-.035-1.091,0-2.161,.237-3.146,.672-.109,.078-.225,.131-.351,.16-.618,.311-1.198,.703-1.718,1.176-1.613,1.467-2.502,3.476-2.502,5.657,0,3.79,2.707,6.979,6.437,7.581,13.529,2.186,25.598,2.184,39.125,0,3.73-.603,6.438-3.791,6.438-7.581,0-2.182-.889-4.19-2.502-5.657-1.61-1.463-3.787-2.18-5.956-1.973Zm-6.445,14.295c-1.341,.131-2.698,.239-4.034,.323-.021,0-.042,.002-.063,.002-.523,0-.964-.407-.997-.938-.034-.551,.385-1.026,.936-1.061,1.313-.082,2.647-.189,3.966-.317,.544-.05,1.039,.349,1.092,.898,.054,.55-.349,1.038-.898,1.092Zm12.241-3.986c-.835,1.575-2.327,2.642-4.095,2.928-1.387,.225-2.758,.424-4.114,.6-.044,.006-.087,.009-.13,.009-.495,0-.925-.367-.99-.871-.071-.548,.314-1.05,.862-1.12,1.337-.174,2.687-.371,4.054-.592,1.143-.185,2.106-.874,2.646-1.891,.259-.487,.865-.673,1.353-.415,.487,.259,.674,.864,.415,1.353Z"/><path d="M9.495,42.091l2.318-2.318c1.272-1.271,2.855-2.065,4.518-2.367-2.273-.168-4.543-.361-6.807-.602-.192-.017-.373-.034-.554-.034-2.74,0-4.97,2.226-4.97,4.961,0,1.416,.62,2.751,1.653,3.682,.429-.638,.927-1.234,1.505-1.759,.703-.639,1.494-1.158,2.337-1.562Z"/></svg>