<?xml version="1.0" encoding="UTF-8" standalone="no"?> <svg fill="white" xmlns="http://www.w3.org/2000/svg" viewBox="0 0 64 64"><g id="Layer_24" data-name="Layer 24"><polygon points="25.65 43.8 25.65 46.88 28.32 48.43 31 46.88 31 43.8 28.32 42.25 25.65 43.8"/><polygon points="34.68 37.42 32 35.88 29.32 37.42 29.32 40.52 32 42.06 34.68 40.52 34.68 37.42"/><polygon points="33 43.8 33 46.88 35.68 48.43 38.35 46.88 38.35 43.8 35.68 42.25 33 43.8"/><path d="M49.46,20.45a11.11,11.11,0,0,1-3-7.61v-2.3h2.17a1,1,0,0,0,1-1V6.26A3.26,3.26,0,0,0,46.36,3H17.64a3.26,3.26,0,0,0-3.26,3.26V9.54a1,1,0,0,0,1,1h2.17v2.3a11.11,11.11,0,0,1-3,7.61,13.11,13.11,0,0,0-3.54,9V54.89A6.12,6.12,0,0,0,17.11,61H46.89A6.12,6.12,0,0,0,53,54.89V29.42A13.11,13.11,0,0,0,49.46,20.45ZM46.89,59H17.11a4.11,4.11,0,0,1-4-3.11H50.86A4.11,4.11,0,0,1,46.89,59Zm-7-16.65a1,1,0,0,1,.5.87v4.24a1,1,0,0,1-.5.87c-.27.1-4,2.43-4.17,2.26-.32.12-3.35-1.83-3.68-2l-3.18,1.83a1,1,0,0,1-1,0l-3.67-2.12a1,1,0,0,1-.5-.87V43.22a1,1,0,0,1,.5-.87l3.17-1.83V36.85a1,1,0,0,1,.5-.87l3.68-2.12a1,1,0,0,1,1,0L36.18,36a1,1,0,0,1,.5.87v3.67ZM13.05,28.42A11.16,11.16,0,0,1,16,21.81a13.07,13.07,0,0,0,3.55-9v-2.3h24.9v2.3a13.11,13.11,0,0,0,3.54,9,11.11,11.11,0,0,1,3,6.61Z"/></g></svg>