<?xml version="1.0" encoding="UTF-8"?><svg id="Layer_1" fill="white" xmlns="http://www.w3.org/2000/svg" viewBox="0 0 48 48"><path d="M41,18v.33c-.65-.68-1.35-1.31-2.1-1.88-.76-6.44-6.25-11.45-12.9-11.45s-12.14,5.01-12.9,11.45c-.75,.57-1.45,1.2-2.1,1.88v-.33c0-8.27,6.73-15,15-15s15,6.73,15,15Z"/><path d="M26,10c-1.61,0-2.99,.95-3.62,2.32,1.17-.21,2.38-.32,3.62-.32s2.45,.11,3.62,.32c-.63-1.37-2.01-2.32-3.62-2.32Z"/><path d="M3.76,26c-.77,0-1.45,.42-1.8,1.11l-1.16,2.34c-.27,.53-.29,1.15-.05,1.7,.24,.56,.71,.97,1.3,1.13l2.95,.82v-.1c0-2.45,.42-4.81,1.21-7H3.76Z"/><path d="M38.006,18.29c-3.275-2.678-7.455-4.29-12.006-4.29s-8.731,1.612-12.006,4.29c3.641,1.735,7.712,2.71,12.006,2.71s8.366-.975,12.006-2.71Z"/><path d="M45,36v-3c0-5.158-2.073-9.836-5.42-13.263-4.081,2.081-8.693,3.263-13.58,3.263s-9.499-1.182-13.58-3.263c-3.348,3.427-5.42,8.105-5.42,13.263v3H45Z"/><path d="M7,38v2c0,1.654,1.346,3,3,3H42c1.654,0,3-1.346,3-3v-2H7Z"/></svg>