<?xml version="1.0" encoding="UTF-8" standalone="no"?> <svg id="Layer_1" fill='white' data-name="Layer 1" xmlns="http://www.w3.org/2000/svg" viewBox="0 0 64 64"><title>sauce_1</title><path d="M14,32V44a1,1,0,0,1-1,1H8V31h5A1,1,0,0,1,14,32Z"/><path d="M14,32V44a1,1,0,0,1-1,1H8V31h5A1,1,0,0,1,14,32Z"/><path d="M55,35V49H50a1,1,0,0,1-1-1V36a1,1,0,0,1,1-1Z"/><path d="M55,35V49H50a1,1,0,0,1-1-1V36a1,1,0,0,1,1-1Z"/><path d="M13,45H8V31h5a1,1,0,0,1,1,1V44A1,1,0,0,1,13,45Z"/><path d="M26,18V58a1,1,0,0,1-1,1H9a1,1,0,0,1-1-1V47h5a3,3,0,0,0,3-3V32a3,3,0,0,0-3-3H8V18a1,1,0,0,1,1-1H25A1,1,0,0,1,26,18Z"/><path d="M13,45H8V31h5a1,1,0,0,1,1,1V44A1,1,0,0,1,13,45Z"/><path d="M26,18V58a1,1,0,0,1-1,1H9a1,1,0,0,1-1-1V47h5a3,3,0,0,0,3-3V32a3,3,0,0,0-3-3H8V18a1,1,0,0,1,1-1H25A1,1,0,0,1,26,18Z"/><polygon points="20.72 15 13.28 15 15.78 5 18.22 5 20.72 15"/><polygon points="20.72 15 13.28 15 15.78 5 18.22 5 20.72 15"/><path d="M55,26v7H50a3,3,0,0,0-3,3V48a3,3,0,0,0,3,3h5v7a1,1,0,0,1-1,1H38a1,1,0,0,1-1-1V26a1,1,0,0,1,1-1H54A1,1,0,0,1,55,26Z"/><path d="M50,35h5V49H50a1,1,0,0,1-1-1V36A1,1,0,0,1,50,35Z"/><path d="M55,26v7H50a3,3,0,0,0-3,3V48a3,3,0,0,0,3,3h5v7a1,1,0,0,1-1,1H38a1,1,0,0,1-1-1V26a1,1,0,0,1,1-1H54A1,1,0,0,1,55,26Z"/><path d="M50,35h5V49H50a1,1,0,0,1-1-1V36A1,1,0,0,1,50,35Z"/><polygon points="49.72 23 42.28 23 44.78 13 47.22 13 49.72 23"/><polygon points="49.72 23 42.28 23 44.78 13 47.22 13 49.72 23"/></svg>