<?xml version="1.0" encoding="utf-8"?>
<!-- Generator: Adobe Illustrator 21.0.0, SVG Export Plug-In . SVG Version: 6.00 Build 0)  -->
<svg version="1.1" fill="white" id="Livello_1" xmlns="http://www.w3.org/2000/svg" xmlns:xlink="http://www.w3.org/1999/xlink" x="0px" y="0px"
	 viewBox="0 0 100 100" style="enable-background:new 0 0 100 100;" xml:space="preserve">
<style type="text/css">
	.st0{fill:none;}
</style>
<g>
	<rect class="st0" width="100" height="100"/>
</g>
<g>
	<path d="M21.688,43.919c0,11.33,6.657,21.1,16.271,25.626v6.687h24.083v-6.687c9.614-4.526,16.271-14.296,16.271-25.626H21.688z"/>
	<path d="M44.172,33.045c-0.997,1.066-2.126,2.274-2.234,3.972c-0.118,1.842,1.005,3.309,2.165,4.654
		c0.198,0.229,0.477,0.347,0.758,0.347c0.231,0,0.464-0.08,0.653-0.243c0.418-0.361,0.465-0.992,0.104-1.411
		c-0.89-1.032-1.753-2.13-1.684-3.22c0.063-0.982,0.821-1.794,1.699-2.733c0.568-0.608,1.156-1.237,1.606-1.98
		c0.81-1.337,1.042-3.043,0.636-4.68c-0.406-1.636-1.408-3.036-2.75-3.84c-0.474-0.285-1.088-0.13-1.372,0.343
		c-0.284,0.474-0.13,1.088,0.343,1.372c0.888,0.533,1.558,1.483,1.836,2.607s0.131,2.276-0.406,3.163
		C45.186,31.96,44.694,32.487,44.172,33.045z"/>
	<path d="M54.172,33.045c-0.997,1.066-2.126,2.274-2.234,3.972c-0.118,1.842,1.005,3.309,2.165,4.654
		c0.198,0.229,0.477,0.347,0.758,0.347c0.231,0,0.464-0.08,0.653-0.243c0.418-0.361,0.465-0.992,0.104-1.411
		c-0.89-1.032-1.753-2.13-1.684-3.22c0.063-0.982,0.821-1.794,1.699-2.733c0.568-0.608,1.156-1.237,1.606-1.98
		c0.81-1.337,1.042-3.043,0.636-4.68c-0.406-1.636-1.408-3.036-2.75-3.84c-0.474-0.285-1.088-0.13-1.372,0.343
		c-0.284,0.474-0.13,1.088,0.343,1.372c0.888,0.533,1.558,1.483,1.836,2.607s0.131,2.276-0.406,3.163
		C55.186,31.96,54.694,32.487,54.172,33.045z"/>
</g>
</svg>
