<?xml version="1.0" encoding="utf-8"?>
<!-- Generator: Adobe Illustrator 16.0.0, SVG Export Plug-In . SVG Version: 6.00 Build 0)  -->
<!DOCTYPE svg PUBLIC "-//W3C//DTD SVG 1.0//EN" "http://www.w3.org/TR/2001/REC-SVG-20010904/DTD/svg10.dtd">
<svg version="1.0" fill="white" id="Layer_1" xmlns="http://www.w3.org/2000/svg" xmlns:xlink="http://www.w3.org/1999/xlink" x="0px" y="0px"
	 width="100px" height="100px" viewBox="0 0 100 100" enable-background="new 0 0 100 100" xml:space="preserve">
<path d="M83.333,70c0-18.408-14.925-33.333-33.333-33.333c-0.944,0-1.875,0.064-2.803,0.143c1.315,2.119,2.49,4.311,3.538,6.563
	C65.12,43.763,76.667,55.521,76.667,70H70c0-9.847-7.126-18.015-16.494-19.675c0.808,2.475,1.494,4.987,1.992,7.556
	c4.612,2.1,7.835,6.722,7.835,12.119H50c0-11.797-3.623-22.747-9.805-31.813c-2.21,0.681-4.316,1.586-6.302,2.686
	c6.1,8.444,9.439,18.52,9.439,29.128h-6.666c0-9.209-2.907-17.956-8.217-25.28C21.276,50.82,16.667,59.841,16.667,70H10v6.667h6.667
	l5.176,10.352C22.663,88.659,24.834,90,26.667,90h46.666c1.833,0,4.004-1.341,4.824-2.981l5.176-10.352H90V70H83.333z
	 M27.272,56.106C29.056,60.459,30,65.156,30,70h-6.667C23.333,64.902,24.788,60.156,27.272,56.106z"/>
<path d="M67.073,10H60c2.764,6.667,2.559,13.821,0,20h7.073C69.18,23.464,69.18,16.53,67.073,10z"/>
<path d="M53.74,10h-7.073c2.764,6.667,2.562,13.821,0,20h7.073C55.847,23.464,55.847,16.53,53.74,10z"/>
<path d="M40.407,10h-7.074c2.764,6.667,2.563,13.821,0,20h7.074C42.51,23.464,42.513,16.53,40.407,10z"/>
</svg>
