<?xml version="1.0" encoding="UTF-8" standalone="no"?>
<!-- Generator: Adobe Illustrator 18.0.0, SVG Export Plug-In . SVG Version: 6.00 Build 0)  -->

<svg
   version="1.1"
   id="svg2985"
   inkscape:version="1.2.1 (9c6d41e410, 2022-07-14)"
   sodipodi:docname="Logo_mini.svg"
   x="0px"
   y="0px"
   viewBox="0 0 744.1 1052.4"
   enable-background="new 0 0 744.1 1052.4"
   xml:space="preserve"
   xmlns:inkscape="http://www.inkscape.org/namespaces/inkscape"
   xmlns:sodipodi="http://sodipodi.sourceforge.net/DTD/sodipodi-0.dtd"
   xmlns="http://www.w3.org/2000/svg"
   xmlns:svg="http://www.w3.org/2000/svg"><defs
   id="defs27">
			
			
		</defs><sodipodi:namedview
   id="namedview25"
   pagecolor="#ffffff"
   bordercolor="#000000"
   borderopacity="0.25"
   inkscape:showpageshadow="2"
   inkscape:pageopacity="0.0"
   inkscape:pagecheckerboard="0"
   inkscape:deskcolor="#d1d1d1"
   showgrid="false"
   inkscape:zoom="0.78772328"
   inkscape:cx="260.87841"
   inkscape:cy="526.83475"
   inkscape:window-width="1920"
   inkscape:window-height="1009"
   inkscape:window-x="-8"
   inkscape:window-y="-8"
   inkscape:window-maximized="1"
   inkscape:current-layer="g16" />
<path
   fill="none"
   stroke="#ffffff"
   stroke-width="0"
   stroke-linecap="round"
   stroke-linejoin="round"
   d="M453.1,583c0,0-0.1,0-0.1,0  "
   id="path2" />
<g
   id="g18"
   style="fill:#008000;fill-opacity:1">
	<path
   fill="none"
   d="M85.6,282.8v435c0,22.4,12.3,41.9,30.5,52.3l208.4-280.8L135.4,223.6C107.2,228.5,85.6,253.2,85.6,282.8z"
   id="path4"
   style="fill:#000000;fill-opacity:0" />
	<polygon
   points="486,805.7 486.2,805.7 486,805.5  "
   id="polygon6"
   style="fill:#008000;fill-opacity:1" />
	<g
   id="g16"
   style="fill:#008000;fill-opacity:1">
		
		<path
   d="m 614.3,194.8 h -72.7 l -21.3,27.8 v 0 L 368.7,433.2 223.8,222.6 h 0.1 l -20,-27.8 h -58 c -48.5,0 -88,39.5 -88,88 v 435 c 0,48.5 39.5,88 88,88 h 30.8 l 0.4,0.1 187.5,-261.8 4.3,-5.7 C 420.5,617 475.2,669 475.2,669 c 0,0 -6.8,-18.5 -13.2,-44.8 -9.1,-37.7 -1,-57.4 -48.9,-143.6 l 192.3,-258 h 9 c 33.2,0 60.2,27 60.2,60.2 v 435 c 0,30.1 -22.3,55.1 -51.3,59.4 L 613.9,777 C 592,741.3 500.4,595.3 461.2,583 c 6.1,75.7 59.4,209.8 68.8,222.8 l 84.4,-0.1 c 3.2,0 6.4,-0.2 9.5,-0.5 h 1 V 805 c 43.6,-5.2 77.5,-42.3 77.5,-87.3 v -435 c -0.2,-48.4 -39.6,-87.9 -88.1,-87.9 z M 116.1,770 C 97.9,759.6 85.6,740.1 85.6,717.7 v -435 c 0,-29.6 21.5,-54.2 49.7,-59.2 l 189.2,265.6 z"
   id="path12"
   style="fill:#ffffff;fill-opacity:1" />
	</g>
</g>
<rect
   x="434.6"
   y="584.4"
   transform="matrix(0.6349 0.7726 -0.7726 0.6349 616.9058 -136.581)"
   fill="#FFFFFF"
   stroke="#ffffff"
   stroke-width="0.25"
   stroke-miterlimit="10"
   width="36.8"
   height="0"
   id="rect20" />
<rect
   x="451.7"
   y="672.6"
   transform="matrix(0.6349 0.7726 -0.7726 0.6349 691.2728 -117.6208)"
   fill="#FFFFFF"
   stroke="#ffffff"
   stroke-width="0.25"
   stroke-miterlimit="10"
   width="36.8"
   height="0"
   id="rect22" />
</svg>
